<?xml version="1.0" encoding="UTF-8"?>
<svg width="32px" height="32px" viewBox="0 0 32 32" version="1.1" xmlns="http://www.w3.org/2000/svg" xmlns:xlink="http://www.w3.org/1999/xlink">
    <title>Icons / 32x32 / Colorful / brand-twitter</title>
    <g id="Icons-/-32x32-/-Colorful-/-brand-twitter" stroke="none" stroke-width="1" fill="none" fill-rule="evenodd">
        <rect id="Bg" x="0" y="0" width="32" height="32"></rect>
        <path d="M28,8.38461538 C27.1028037,8.76923077 26.2056075,9.07692308 25.1588785,9.15384615 C26.2056075,8.53846154 26.953271,7.53846154 27.3271028,6.38461538 C26.3551402,7 25.3084112,7.38461538 24.1869159,7.61538462 C23.2897196,6.61538462 22.0186916,6 20.6728972,6 C17.9813084,6 15.7383178,8.23076923 15.7383178,11.0769231 C15.7383178,11.4615385 15.8130841,11.8461538 15.8878505,12.2307692 C11.7757009,12 8.18691589,10 5.71962617,6.92307692 C5.27102804,7.69230769 5.04672897,8.53846154 5.04672897,9.46153846 C5.04672897,11.2307692 5.94392523,12.7692308 7.21495327,13.6923077 C6.39252336,13.6923077 5.64485981,13.4615385 4.97196262,13.0769231 C4.97196262,13.0769231 4.97196262,13.1538462 4.97196262,13.1538462 C4.97196262,15.6153846 6.69158879,17.6153846 8.93457944,18.0769231 C8.48598131,18.1538462 8.11214953,18.2307692 7.6635514,18.2307692 C7.36448598,18.2307692 7.06542056,18.2307692 6.76635514,18.1538462 C7.36448598,20.1538462 9.23364486,21.6153846 11.3271028,21.6923077 C9.68224299,23.0769231 7.51401869,23.8461538 5.19626168,23.8461538 C4.82242991,23.8461538 4.37383178,23.8461538 4,23.7692308 C6.24299065,25.1538462 8.85981308,26 11.6261682,26 C20.6728972,26 25.6074766,18.3076923 25.6074766,11.6153846 C25.6074766,11.3846154 25.6074766,11.1538462 25.6074766,11 C26.5046729,10.2307692 27.3271028,9.38461538 28,8.38461538 Z" id="Path" stroke="#252525" stroke-width="2" fill="#FFE8DD" stroke-linejoin="round"></path>
    </g>
</svg>