<?xml version="1.0" encoding="UTF-8"?>
<svg width="191px" height="64px" viewBox="0 0 191 64" version="1.1" xmlns="http://www.w3.org/2000/svg" xmlns:xlink="http://www.w3.org/1999/xlink">
    <title>CTA / Black / CTA</title>
    <g id="CTA-/-Black-/-CTA" stroke="none" stroke-width="1" fill="none" fill-rule="evenodd">
        <g id="Group">
            <g fill="#FFE8DD" id="Bg" stroke="#252525" stroke-width="2">
                <rect x="1" y="1" width="189" height="62" rx="16"></rect>
            </g>
            <g id="_Group_" transform="translate(15.915967, 13.952595)" fill="#252525" fill-rule="nonzero">
                <g id="_Group_3">
                    <path d="M23.6185072,18.5285958 C23.6533939,15.8142512 25.0729738,13.3070225 27.3798949,11.8853214 C25.9179512,9.7923566 23.5570752,8.5129457 21.0094651,8.43304459 C18.3291715,8.15102951 15.7307436,10.0407674 14.364915,10.0407674 C12.9726544,10.0407674 10.8697467,8.4610445 8.60526221,8.50774835 C5.6257911,8.6042415 2.91545172,10.2611754 1.46587843,12.8723262 C-1.62104649,18.2297808 0.681521771,26.1034352 3.63853727,30.4339971 C5.11799472,32.5545502 6.84705575,34.9232625 9.10949719,34.8392628 C11.3234321,34.7472151 12.1502938,33.4240994 14.8227025,33.4240994 C17.4703072,33.4240994 18.2460767,34.8392628 20.554423,34.7858549 C22.9300783,34.7471991 24.4268538,32.6558779 25.8544049,30.5152448 C26.9173927,29.0042733 27.73536,27.3343207 28.2780081,25.5672449 C25.4564511,24.3709788 23.6218004,21.5995527 23.6185072,18.5285958 L23.6185072,18.5285958 Z" id="_Path_"></path>
                    <path d="M19.2584572,5.58497385 C20.5537631,4.02624596 21.1919112,2.02276535 21.0373815,0 C19.0584421,0.208352103 17.2304564,1.15644372 15.917651,2.65536737 C14.6213161,4.134257 13.9645958,6.06904056 14.0921356,8.03357389 C16.0976102,8.05427265 18.001766,7.15178991 19.2584572,5.58497385 L19.2584572,5.58497385 Z" id="_Path_2"></path>
                </g>
                <g id="Group" transform="translate(39.034601, 14.641184)">
                    <path d="M12.5695624,14.8297278 L5.01441744,14.8297278 L3.20005897,20.2000303 L0,20.2000303 L7.15611127,0.331294923 L10.4808603,0.331294923 L17.6369716,20.2000303 L14.3823407,20.2000303 L12.5695624,14.8297278 Z M5.79689066,12.3516079 L11.7855889,12.3516079 L8.83336176,3.63600418 L8.75074582,3.63600418 L5.79689066,12.3516079 Z" id="Shape"></path>
                    <path d="M33.0917394,12.9578619 C33.0917394,17.4594153 30.6881837,20.3515819 27.0610309,20.3515819 C25.1861874,20.4498929 23.4201872,19.4655218 22.5142331,17.8171901 L22.4455993,17.8171901 L22.4455993,24.9921748 L19.4793422,24.9921748 L19.4793422,5.71412543 L22.3505655,5.71412543 L22.3505655,8.1234936 L22.4051214,8.1234936 C23.3513234,6.48549559 25.1192279,5.50154826 27.006475,5.56255792 C30.6740898,5.56257392 33.0917394,8.46880448 33.0917394,12.9578619 Z M30.0428663,12.9578619 C30.0428663,10.0250714 28.5308956,8.09693368 26.2239859,8.09693368 C23.957602,8.09693368 22.4331654,10.0656793 22.4331654,12.9578619 C22.4331654,15.8766044 23.957602,17.831286 26.2239859,17.831286 C28.5309116,17.831286 30.0428663,15.9172283 30.0428663,12.9578619 Z" id="Shape"></path>
                    <path d="M48.9969684,12.9578619 C48.9969684,17.4594153 46.5934127,20.3515819 42.96626,20.3515819 C41.0914164,20.4498929 39.3254162,19.4655218 38.4194622,17.8171901 L38.3508284,17.8171901 L38.3508284,24.9921748 L35.3845712,24.9921748 L35.3845712,5.71412543 L38.2557306,5.71412543 L38.2557306,8.1234936 L38.3102865,8.1234936 C39.2564955,6.48549658 41.0244067,5.50155504 42.9116562,5.56257392 C46.5793827,5.56257392 48.9969684,8.46880448 48.9969684,12.9578619 Z M45.9481113,12.9578619 C45.9481113,10.0250714 44.4361246,8.09693368 42.1292149,8.09693368 C39.862831,8.09693368 38.3383945,10.0656793 38.3383945,12.9578619 C38.3383945,15.8766044 39.862831,17.831286 42.1292149,17.831286 C44.4361406,17.831286 45.9481113,15.9172283 45.9481113,12.9578619 L45.9481113,12.9578619 Z" id="Shape"></path>
                    <path d="M59.5090172,14.6640963 C59.728805,16.6344099 61.6382612,17.9280857 64.2475427,17.9280857 C66.7477444,17.9280857 68.5465087,16.6343459 68.5465087,14.8577757 C68.5465087,13.3155887 67.4616317,12.3921837 64.8928601,11.7593538 L62.3240884,11.1390358 C58.6844699,10.2577907 56.9948014,8.55154021 56.9948014,5.78279721 C56.9948014,2.35468035 59.9750886,0 64.2070169,0 C68.3952749,0 71.2664822,2.35468035 71.3631281,5.78279721 L68.368779,5.78279721 C68.1895331,3.79998765 66.5544206,2.60312754 64.1648949,2.60312754 C61.7753692,2.60312754 60.1402726,3.8140676 60.1402726,5.57655788 C60.1402726,6.98124131 61.1846237,7.80779862 63.7393653,8.44054857 L65.9231332,8.97805082 C69.9898456,9.94211169 71.679514,11.5796424 71.679514,14.4858409 C71.679514,18.2030128 68.7257227,20.5311333 64.027723,20.5311333 C59.6321111,20.5311333 56.6643058,18.2577007 56.472578,14.6639523 L59.5090172,14.6640963 Z" id="Path"></path>
                    <path d="M78.0812281,2.28600857 L78.0812281,5.71412543 L80.8292616,5.71412543 L80.8292616,8.06880578 L78.0812281,8.06880578 L78.0812281,16.0547158 C78.0812281,17.2953358 78.6314636,17.8734619 79.8394664,17.8734619 C80.1657027,17.8677594 80.4914112,17.8447942 80.8152316,17.8046621 L80.8152316,20.1452785 C80.2721121,20.2470055 79.7200768,20.2930772 79.1676532,20.2827821 C76.241938,20.2827821 75.1009409,19.1812177 75.1009409,16.3718508 L75.1009409,8.06880578 L72.9997889,8.06880578 L72.9997889,5.71412543 L75.100909,5.71412543 L75.100909,2.28600857 L78.0812281,2.28600857 Z" id="Path"></path>
                    <path d="M82.4207837,12.9578619 C82.4207837,8.4000687 85.0986671,5.53601401 89.2745072,5.53601401 C93.4643614,5.53601401 96.129779,8.4000047 96.129779,12.9578619 C96.129779,17.528167 93.4783914,20.3797098 89.2745072,20.3797098 C85.0721074,20.3797098 82.4207837,17.528151 82.4207837,12.9578619 Z M93.1074017,12.9578619 C93.1074017,9.83131205 91.678047,7.98600605 89.2744912,7.98600605 C86.8709355,7.98600605 85.443145,9.845376 85.443145,12.9578619 C85.443145,16.0969077 86.8709355,17.9281657 89.2744912,17.9281657 C91.678047,17.9281657 93.1074017,16.0969077 93.1074017,12.9578619 L93.1074017,12.9578619 Z" id="Shape"></path>
                    <path d="M98.575345,5.71412543 L101.404446,5.71412543 L101.404446,8.17971742 L101.47308,8.17971742 C101.867606,6.59250402 103.318424,5.50012862 104.949031,5.56254192 C105.290866,5.5613455 105.631757,5.598559 105.965322,5.67348556 L105.965322,8.45472452 C105.533776,8.32253826 105.0836,8.26184721 104.632549,8.27504511 C103.760498,8.23958193 102.916546,8.58796366 102.32229,9.22871556 C101.728034,9.86946747 101.442844,10.7385743 101.541602,11.6078343 L101.541602,20.1999984 L98.575345,20.1999984 L98.575345,5.71412543 Z" id="Path"></path>
                    <path d="M119.641533,15.9453402 C119.242499,18.5750116 116.687741,20.3796938 113.419096,20.3796938 C109.215212,20.3796938 106.605915,17.5562629 106.605915,13.0265977 C106.605915,8.48286843 109.229242,5.53599801 113.294406,5.53599801 C117.292533,5.53599801 119.806764,8.28910906 119.806764,12.6812868 L119.806764,13.7000355 L109.600232,13.7000355 L109.600232,13.8797149 C109.504939,14.958162 109.87643,16.025675 110.62021,16.8107133 C111.36399,17.5957515 112.408372,18.0226507 113.487698,17.9828216 C114.92716,18.1180205 116.284291,17.2894441 116.824929,15.9453242 L119.641533,15.9453402 Z M109.614234,11.6219302 L116.838943,11.6219302 C116.892774,10.6528574 116.540875,9.70522139 115.86803,9.0073172 C115.195185,8.30941301 114.2624,7.9245189 113.294406,7.94536618 C112.318756,7.93952976 111.3812,8.32460435 110.69013,9.01499989 C109.999059,9.70539544 109.611734,10.6439061 109.614234,11.6219302 L109.614234,11.6219302 Z" id="Shape"></path>
                </g>
            </g>
        </g>
        <g id="_Group_4" transform="translate(56.935601, 13.499364)" fill="#252525" fill-rule="nonzero">
            <g id="Group" transform="translate(0.000000, -0.000000)">
                <path d="M3.44010169,0.470398471 C4.69936684,0.379813456 5.9327892,0.86007309 6.80087754,1.77898913 C7.66896588,2.69790516 8.08021892,3.9586188 7.921442,5.21412705 C7.921442,8.26411714 6.27699208,10.0173114 3.44010169,10.0173114 L0,10.0173114 L0,0.470398471 L3.44010169,0.470398471 Z M1.47921803,8.66717183 L3.27486981,8.66717183 C4.1748057,8.72109487 5.05107511,8.36566722 5.66037087,7.69957784 C6.26966663,7.03348846 6.54712133,6.12765115 6.41569621,5.23358299 C6.53755953,4.34322514 6.25610918,3.44486275 5.64832414,2.78420532 C5.0405391,2.12354789 4.17002324,1.76973233 3.27486981,1.81953009 L1.47921803,1.81953009 L1.47921803,8.66717183 Z" id="Shape"></path>
                <path d="M9.59238776,6.41172316 C9.46914559,5.12034344 10.0868762,3.87056652 11.186505,3.18654543 C12.2861339,2.50252435 13.6775383,2.50252435 14.7771672,3.18654543 C15.876796,3.87056652 16.4945266,5.12034344 16.3712845,6.41172316 C16.4968715,7.70449058 15.8797047,8.9566915 14.7791008,9.64218514 C13.678497,10.3276788 12.2851752,10.3276788 11.1845714,9.64218514 C10.0839675,8.9566915 9.46680076,7.70449058 9.59238776,6.41172316 Z M14.9123214,6.41172316 C14.9123214,4.85001624 14.2124322,3.93673921 12.9841744,3.93673921 C11.7512241,3.93673921 11.0576396,4.85001624 11.0576396,6.41173916 C11.0576396,7.98595805 11.751272,8.8921951 12.9841744,8.8921951 C14.2124641,8.8921951 14.9123214,7.97968607 14.9123214,6.41172316 L14.9123214,6.41172316 Z" id="Shape"></path>
                <polygon id="Path" points="25.3822801 10.0171674 23.9108512 10.0171674 22.4253923 4.71092869 22.313168 4.71092869 20.833934 10.0171674 19.3765192 10.0171674 17.3953806 2.81250286 18.8340887 2.81250286 20.121595 8.31008499 20.2275943 8.31008499 21.7052641 2.81250286 23.0660329 2.81250286 24.5437027 8.31008499 24.655927 8.31008499 25.9371923 2.81250286 27.3556296 2.81250286"></polygon>
                <path d="M29.0218986,2.81250286 L30.3873442,2.81250286 L30.3873442,3.95702714 L30.4933435,3.95702714 C30.8619467,3.11435458 31.7232658,2.59888351 32.6381498,2.67343131 C33.3465413,2.62004232 34.0407148,2.89245444 34.5246708,3.41375222 C35.0086267,3.93504999 35.2298468,4.64866291 35.1258697,5.3531026 L35.1258697,10.0170874 L33.7074325,10.0170874 L33.7074325,5.71015744 C33.7074325,4.5523532 33.2055279,3.97656308 32.1565001,3.97656308 C31.676009,3.95412974 31.2097051,4.14315865 30.879839,4.49409225 C30.5499728,4.84502585 30.3894431,5.32286432 30.4403359,5.80233314 L30.4403359,10.0171674 L29.0218986,10.0171674 L29.0218986,2.81250286 Z" id="Path"></path>
                <polygon id="Path" points="37.3860287 0 38.8044659 0 38.8044659 10.0171514 37.3860287 10.0171514"></polygon>
                <path d="M40.7762511,6.41172316 C40.6531036,5.12025896 41.2709317,3.8704504 42.3706421,3.18641877 C43.4703525,2.50238713 44.8618285,2.50238713 45.961539,3.18641877 C47.0612494,3.8704504 47.6790775,5.12025896 47.5559299,6.41172316 C47.6813574,7.70453686 47.0640776,8.9567024 45.9634191,9.64216585 C44.8627607,10.3276293 43.4694204,10.3276293 42.368762,9.64216585 C41.2681035,8.9567024 40.6508236,7.70453686 40.7762511,6.41172316 L40.7762511,6.41172316 Z M46.0961848,6.41172316 C46.0961848,4.85001624 45.3962956,3.93673921 44.1680378,3.93673921 C42.9350874,3.93673921 42.241503,4.85001624 42.241503,6.41173916 C42.241503,7.98595805 42.9351353,8.8921951 44.1680378,8.8921951 C45.3963115,8.8921951 46.0961848,7.97968607 46.0961848,6.41172316 L46.0961848,6.41172316 Z" id="Shape"></path>
                <path d="M49.049194,7.97968607 C49.049194,6.68281028 50.0124933,5.93516471 51.7224007,5.82890906 L53.6692544,5.71641342 L53.6692544,5.09454344 C53.6692544,4.33360192 53.1673497,3.90392331 52.1978255,3.90392331 C51.4059989,3.90392331 50.8573275,4.19533037 50.6998848,4.70470471 L49.3266501,4.70470471 C49.4716111,3.46720473 50.6328631,2.67346331 52.263283,2.67346331 C54.0651756,2.67346331 55.0814666,3.57266039 55.0814666,5.09454344 L55.0814666,10.0171834 L53.7160211,10.0171834 L53.7160211,9.00469073 L53.6037969,9.00469073 C53.1400376,9.74409047 52.3153228,10.1762281 51.4449605,10.1358871 C50.8348158,10.1995058 50.2262974,10.0014246 49.7698422,9.59061274 C49.313387,9.17980093 49.0515979,8.59460137 49.049194,7.97968607 L49.049194,7.97968607 Z M53.6692544,7.36405607 L53.6692544,6.76172202 L51.9141284,6.87421766 C50.9243333,6.94061744 50.4754203,7.27812035 50.4754203,7.91327028 C50.4754203,8.56170017 51.0365575,8.93904295 51.808193,8.93904295 C52.2649845,8.98539458 52.7209848,8.84393134 53.0718057,8.54703716 C53.4226266,8.25014299 53.6382281,7.82324027 53.6692544,7.36405607 Z" id="Shape"></path>
                <path d="M56.9456884,6.41172316 C56.9456884,4.13517056 58.1131813,2.69298325 59.929088,2.69298325 C60.8460304,2.6506316 61.704832,3.14314637 62.1331268,3.95697914 L62.2391262,3.95697914 L62.2391262,0 L63.6575634,0 L63.6575634,10.0171514 L62.2983587,10.0171514 L62.2983587,8.87886714 L62.1861345,8.87886714 C61.7254647,9.68594769 60.8560825,10.1701373 59.9291039,10.1358871 C58.1007154,10.1359671 56.9456884,8.69374775 56.9456884,6.41172316 Z M58.4109402,6.41172316 C58.4109402,7.9398462 59.1295202,8.85937921 60.331298,8.85937921 C61.5268031,8.85937921 62.2656699,7.92658224 62.2656699,6.41797914 C62.2656699,4.91641602 61.5190459,3.9703231 60.331298,3.9703231 C59.1372614,3.9703231 58.4108923,4.89609609 58.4108923,6.41172316 L58.4109402,6.41172316 Z" id="Shape"></path>
                <path d="M69.5261684,6.41172316 C69.4029262,5.12034344 70.0206568,3.87056652 71.1202857,3.18654543 C72.2199145,2.50252435 73.611319,2.50252435 74.7109478,3.18654543 C75.8105766,3.87056652 76.4283072,5.12034344 76.3050651,6.41172316 C76.4306521,7.70449058 75.8134853,8.9566915 74.7128815,9.64218514 C73.6122776,10.3276788 72.2189558,10.3276788 71.118352,9.64218514 C70.0177482,8.9566915 69.4005814,7.70449058 69.5261684,6.41172316 L69.5261684,6.41172316 Z M74.846086,6.41172316 C74.846086,4.85001624 74.1462128,3.93673921 72.9179551,3.93673921 C71.6850047,3.93673921 70.9914202,4.85001624 70.9914202,6.41173916 C70.9914202,7.98595805 71.6850526,8.8921951 72.9179551,8.8921951 C74.1462288,8.8921951 74.846086,7.97968607 74.846086,6.41172316 Z" id="Shape"></path>
                <path d="M78.2082644,2.81250286 L79.57371,2.81250286 L79.57371,3.95702714 L79.6797093,3.95702714 C80.0483125,3.11435458 80.9096316,2.59888351 81.8245156,2.67343131 C82.5329071,2.62004232 83.2270806,2.89245444 83.7110366,3.41375222 C84.1949925,3.93504999 84.4162126,4.64866291 84.3122355,5.3531026 L84.3122355,10.0170874 L82.8937983,10.0170874 L82.8937983,5.71015744 C82.8937983,4.5523532 82.3918937,3.97656308 81.3428659,3.97656308 C80.8623748,3.95412974 80.3960709,4.14315865 80.0662048,4.49409225 C79.7363386,4.84502585 79.5758089,5.32286432 79.6267016,5.80233314 L79.6267016,10.0171674 L78.2082644,10.0171674 L78.2082644,2.81250286 Z" id="Path"></path>
                <path d="M92.327211,1.01876469 L92.327211,2.84531875 L93.8843843,2.84531875 L93.8843843,4.04297886 L92.327211,4.04297886 L92.327211,7.74765482 C92.327211,8.50234037 92.6374039,8.83280329 93.343502,8.83280329 C93.5242732,8.83222336 93.7048629,8.82126679 93.8843843,8.7999874 L93.8843843,9.98435155 C93.6296563,10.0300326 93.3715711,10.0543354 93.1128126,10.0570073 C91.5353844,10.0570073 90.9072096,9.50075312 90.9072096,8.11170164 L90.9072096,4.04291486 L89.7662285,4.04291486 L89.7662285,2.84525475 L90.9072096,2.84525475 L90.9072096,1.01876469 L92.327211,1.01876469 Z" id="Path"></path>
                <path d="M95.8218686,0 L97.22784,0 L97.22784,3.9703071 L97.3400642,3.9703071 C97.7263732,3.12025956 98.6027668,2.6041316 99.5315575,2.67968729 C100.235926,2.64126707 100.920703,2.91967645 101.399369,3.43908299 C101.878036,3.95848953 102.100736,4.66479386 102.006812,5.36561456 L102.006812,10.0171674 L100.586954,10.0171674 L100.586954,5.71638142 C100.586954,4.56560116 100.052249,3.98278706 99.0500514,3.98278706 C98.5565728,3.94221706 98.0703903,4.12205214 97.7214804,4.47421506 C97.3725704,4.82637799 97.1965109,5.31495922 97.2403696,5.80934112 L97.2403696,10.0171674 L95.8219324,10.0171674 L95.8218686,0 Z" id="Path"></path>
                <path d="M110.277488,8.07186177 C109.879742,9.43086452 108.567786,10.3089314 107.163157,10.156223 C106.20478,10.1815832 105.283727,9.78337732 104.644374,9.06725879 C104.005021,8.35114026 103.712005,7.38950549 103.843069,6.43749908 C103.715486,5.48284694 104.007404,4.51967128 104.643197,3.79750279 C105.278989,3.07533429 106.196094,2.66523414 107.156916,2.67344731 C109.156762,2.67344731 110.363216,4.04304286 110.363216,6.30543551 L110.363216,6.80157789 L105.288002,6.80157789 L105.288002,6.88125764 C105.24309,7.41588013 105.425239,7.94469058 105.789653,8.33763802 C106.154066,8.73058546 106.666932,8.95120918 107.202119,8.94525093 C107.896074,9.02876215 108.571591,8.68370465 108.912042,8.07181377 L110.277488,8.07186177 Z M105.28797,5.74999731 L108.918235,5.74999731 C108.954392,5.2610396 108.782881,4.77951258 108.445966,4.42408017 C108.109051,4.06864776 107.638067,3.87236538 107.149079,3.88360338 C106.653467,3.87736166 106.176344,4.07202074 105.825942,4.42342384 C105.475539,4.77482693 105.281559,5.2531889 105.288002,5.74999731 L105.28797,5.74999731 Z" id="Shape"></path>
            </g>
        </g>
    </g>
</svg>