<?xml version="1.0" encoding="UTF-8"?>
<svg width="48px" height="48px" viewBox="0 0 48 48" version="1.1" xmlns="http://www.w3.org/2000/svg" xmlns:xlink="http://www.w3.org/1999/xlink">
    <title>Logo / Colorful / Logo Copy</title>
    <defs>
        <rect id="path-1" x="0" y="0" width="48" height="48" rx="12"></rect>
    </defs>
    <g id="Logo-/-Colorful-/-Logo-Copy" stroke="none" stroke-width="1" fill="none" fill-rule="evenodd">
        <mask id="mask-2" fill="white">
            <use xlink:href="#path-1"></use>
        </mask>
        <use id="Bg" fill="#EAEAEA" xlink:href="#path-1"></use>
        <rect id="Bg" fill="#FFE57C" mask="url(#mask-2)" x="24" y="-24" width="48" height="48" rx="24"></rect>
        <rect id="Bg" fill="#ABB9FF" mask="url(#mask-2)" x="-24" y="24" width="48" height="48" rx="24"></rect>
        <g id="Ab" mask="url(#mask-2)" fill="#252525" fill-rule="nonzero">
            <g transform="translate(9.168000, 16.200000)" id="Shape">
                <path d="M0,16.8 L4.416,-3.55271368e-15 L9.936,-3.55271368e-15 L14.352,16.8 L11.088,16.8 L10.176,13.104 L4.176,13.104 L3.264,16.8 L0,16.8 Z M4.92,10.176 L9.432,10.176 L7.392,1.992 L6.96,1.992 L4.92,10.176 Z"></path>
                <path d="M23.616,17.136 C22.544,17.136 21.72,16.952 21.144,16.584 C20.568,16.216 20.144,15.808 19.872,15.36 L19.44,15.36 L19.44,16.8 L16.464,16.8 L16.464,-3.55271368e-15 L19.488,-3.55271368e-15 L19.488,6.264 L19.92,6.264 C20.096,5.976 20.332,5.704 20.628,5.448 C20.924,5.192 21.316,4.98 21.804,4.812 C22.292,4.644 22.896,4.56 23.616,4.56 C24.576,4.56 25.464,4.796 26.28,5.268 C27.096,5.74 27.752,6.432 28.248,7.344 C28.744,8.256 28.992,9.36 28.992,10.656 L28.992,11.04 C28.992,12.336 28.744,13.44 28.248,14.352 C27.752,15.264 27.096,15.956 26.28,16.428 C25.464,16.9 24.576,17.136 23.616,17.136 Z M22.704,14.496 C23.632,14.496 24.408,14.196 25.032,13.596 C25.656,12.996 25.968,12.12 25.968,10.968 L25.968,10.728 C25.968,9.576 25.66,8.7 25.044,8.1 C24.428,7.5 23.648,7.2 22.704,7.2 C21.776,7.2 21,7.5 20.376,8.1 C19.752,8.7 19.44,9.576 19.44,10.728 L19.44,10.968 C19.44,12.12 19.752,12.996 20.376,13.596 C21,14.196 21.776,14.496 22.704,14.496 Z"></path>
            </g>
        </g>
    </g>
</svg>